Coordinates
version=1
nRows=21
nColumns=12
inDegrees=yes

Units are S.I. units (second, meters, Newtons, ...)
Angles are in degrees

endheader
time	SC_y	SC_z	SC_x	AC_y	AC_z	AC_x	GH_y	GH_z	GH_yy	EL_x	PS_y
       0.0              -51.21          37.24         0.3206          47.47         -16.82          12.05          152.1         -5.326          114.9          23.85          156.0
   0.01325              -51.21          37.23         0.3241          47.47         -16.82          12.05          152.1         -5.324          114.9          23.86          156.0
   0.02651              -51.22          37.23         0.3277          47.48         -16.82          12.05          152.0         -5.322          114.9          23.88          156.0
   0.03976              -51.22          37.23         0.3316          47.48         -16.82          12.05          152.0         -5.319          114.8          23.89          156.0
   0.05301              -51.22          37.22         0.3357          47.48         -16.82          12.05          152.0         -5.316          114.8          23.91          156.0
   0.06626              -51.22          37.22         0.3401          47.48         -16.82          12.04          151.9         -5.313          114.7          23.93          156.0
   0.07952              -51.22          37.21         0.3448          47.48         -16.81          12.04          151.9          -5.31          114.7          23.95          156.0
   0.09277              -51.22          37.21         0.3499          47.48         -16.81          12.04          151.8         -5.306          114.6          23.97          156.0
     0.106              -51.22           37.2         0.3553          47.48         -16.81          12.04          151.7         -5.303          114.5          23.99          156.0
    0.1193              -51.22          37.19          0.361          47.49         -16.81          12.04          151.7         -5.299          114.5          24.01          156.0
    0.1325              -51.22          37.19         0.3672          47.49         -16.81          12.04          151.6         -5.294          114.4          24.03          156.0
    0.1458              -51.22          37.18         0.3739          47.49          -16.8          12.04          151.5          -5.29          114.3          24.06          156.0
     0.159              -51.23          37.17         0.3811          47.49          -16.8          12.04          151.5         -5.285          114.2          24.09          156.0
    0.1723              -51.23          37.16         0.3889          47.49          -16.8          12.04          151.4          -5.28          114.1          24.12          156.0
    0.1855              -51.23          37.16         0.3973           47.5         -16.79          12.04          151.3         -5.274          114.0          24.16          156.0
    0.1988              -51.23          37.15         0.4065           47.5         -16.79          12.03          151.2         -5.268          113.9          24.19          156.0
     0.212              -51.23          37.14         0.4164           47.5         -16.79          12.03          151.1         -5.261          113.8          24.23          156.0
    0.2253              -51.24          37.12         0.4272          47.51         -16.78          12.03          150.9         -5.253          113.7          24.28          156.0
    0.2385              -51.24          37.11          0.439          47.51         -16.78          12.03          150.8         -5.245          113.5          24.32          156.0
    0.2518              -51.24           37.1         0.4519          47.51         -16.77          12.03          150.7         -5.236          113.4          24.37          156.0
    0.2651              -51.24          37.08         0.4661          47.52         -16.77          12.02          150.5         -5.227          113.2          24.43          156.0
